<svg id="e1KQrYoxtfc1" xmlns="http://www.w3.org/2000/svg" xmlns:xlink="http://www.w3.org/1999/xlink" viewBox="0 0 500 500" shape-rendering="geometricPrecision" text-rendering="geometricPrecision">
<style><![CDATA[
#e1KQrYoxtfc2_ts {animation: e1KQrYoxtfc2_ts__ts 5888.888888888889ms linear infinite normal forwards}@keyframes e1KQrYoxtfc2_ts__ts { 0% {transform: translate(250px,251.993507px) scale(0.83086,0.83086);animation-timing-function: cubic-bezier(0.42,0,0.58,1)} 22.641509% {transform: translate(250px,251.993507px) scale(0.992781,0.992781);animation-timing-function: cubic-bezier(0.42,0,0.58,1)} 49.056604% {transform: translate(250px,251.993507px) scale(0.83086,0.83086);animation-timing-function: cubic-bezier(0.42,0,0.58,1)} 75.471698% {transform: translate(250px,251.993507px) scale(0.992781,0.992781);animation-timing-function: cubic-bezier(0.42,0,0.58,1)} 100% {transform: translate(250px,251.993507px) scale(0.83086,0.83086)}}
]]></style>
<g id="e1KQrYoxtfc2_ts" transform="translate(250,251.993507) scale(0.83086,0.83086)"><g transform="translate(-249.06266,-251.993507)"><g><g><g><path d="M149.6,131.4c1.9,0,1.9-3,0-3-2,0-2,3,0,3v0Z"/></g></g><g><g><path d="M104.4,232.5c15.3,15,30.6,30,45.9,45s30.6,30,45.9,45c2.1,2.1,4.3,4.2,6.4,6.3c1.1,1,2.1,2.1,3.2,3.1.1.1.3.3.4.4c1.4,1.2,2.9,2.3,4.4,3.4s2.9,2.3,4.4,3.4c1.9,1.3,4.1,1.9,6.2,2.8c6.6,2.8,7.9,3.5,16.7,3.8c4,.1,8.1-.6,12-1.5.2-.1.4-.1.7-.2c1.7-.6,3.4-1.3,5-2.1c1.7-.7,3.4-1.4,5.1-2.2c1.9-1,3.7-2.7,5.3-3.9c2.3-1.8,4.5-3.2,6.3-5.4c2.9-3.6,5.6-7.3,8.4-10.9-2.1,2.7-4.2,5.5-6.3,8.2c10.3-13.3,22.9-24.6,36.2-34.9-2.7,2.1-5.5,4.2-8.2,6.3c11.7-9.1,24-17.5,36.1-26c12.7-8.9,25.2-18.2,38.3-26.5c7.2-4.6,14.6-8.7,22.4-12-3.2,1.4-6.4,2.7-9.7,4.1.7-.3,1.4-.6,2.1-.9c5.3-1.3,9.9-3.7,13.8-7.2c4.4-2.9,7.9-6.6,10.4-11.4c3-4.6,4.6-9.7,4.8-15.1c1.2-5.4,1-10.8-.7-16.1-1.4-3.2-2.7-6.4-4.1-9.7-3.6-6.1-8.4-10.9-14.5-14.5-3.2-1.4-6.4-2.7-9.7-4.1-7.2-1.9-14.4-1.9-21.5,0-3.5.8-6.9,1.8-10.3,3-5.3,1.3-9.9,3.7-13.8,7.2-4.4,2.9-7.9,6.6-10.4,11.4-3,4.6-4.6,9.7-4.8,15.1-1.2,5.4-1,10.8.7,16.1c1.4,3.2,2.7,6.4,4.1,9.7c3.6,6.1,8.4,10.9,14.5,14.5c3.2,1.4,6.4,2.7,9.7,4.1c7.2,1.9,14.4,1.9,21.5,0c3.4-1.2,6.8-2.2,10.3-3-7.2-26-14.4-52.1-21.5-78.1-8.5,3.4-16.9,6.9-24.8,11.4-4.9,2.7-9.7,5.7-14.4,8.9-9.9,6.6-19.6,13.6-29.3,20.4-9.5,6.7-19.1,13.3-28.5,20.1-11.4,8.3-22.8,16.8-33.4,26.1-4.5,4-8.9,8.1-13,12.5-6.4,6.8-12,14.3-17.7,21.8c2.1-2.7,4.2-5.5,6.3-8.2-.8,1-1.6,1.9-2.5,2.7c2.7-2.1,5.5-4.2,8.2-6.3-.5.3-1,.6-1.5.9c3.2-1.4,6.4-2.7,9.7-4.1-.3.1-.6.2-1,.3c3.6-.5,7.2-1,10.8-1.4-.4,0-.7,0-1,0c3.6.5,7.2,1,10.8,1.4-.4-.1-.7-.2-1.1-.3c3.2,1.4,6.4,2.7,9.7,4.1-.6-.3-1.1-.6-1.6-1c2.7,2.1,5.5,4.2,8.2,6.3-3.4-2.8-6.5-6.2-9.6-9.3-3.3-3.3-6.6-6.5-10-9.8-6.7-6.6-13.4-13.2-20.1-19.7-13.3-13-26.6-26.1-39.9-39.1-7.5-7.4-15.1-14.8-22.6-22.2-3.7-3.9-8-6.7-13-8.4-4.8-2.5-10-3.7-15.6-3.5-5.6-.2-10.8,1-15.6,3.5-5,1.6-9.4,4.4-13,8.4-2.1,2.7-4.2,5.5-6.3,8.2-3.7,6.3-5.5,13.1-5.5,20.4.5,3.6,1,7.2,1.4,10.8c1.7,6.9,5.2,12.8,10.2,17.9v0Z" fill="#0dcaf0"/></g></g></g><g><g><path d="M263.4,498c-9.6,0-19.2,0-28.8,0-8.2-1-16.5-1.8-24.7-3.1-51.4-8.6-96.1-30.7-133-67.5C21.7,372.1,-2.6,305,4.4,227.3c4.7-52.2,25.2-98.3,60-137.5C110.7,37.8,169,9.7,238.6,6.3c48.5-2.4,94.1,9,135.7,34.3c63.8,38.9,103,95.4,116.8,169.1c1.7,9.2,2.6,18.6,3.8,27.9c0,9.6,0,19.2,0,28.8-.4,3.5-.8,6.9-1.2,10.4-5.9,52.9-26.1,99.6-61.8,139.2-37.9,42-84.8,68.3-140.6,78.2-9.2,1.6-18.5,2.5-27.9,3.8ZM249.5,285c-3.6-3.6-3.7-3.7-5.1-5.1-26.8-26.9-53.6-53.7-80.5-80.5-1.6-1.6-3.2-3.2-4.9-4.5-10.1-7.9-24.3-4.9-30.4,6.4-4.7,8.7-3,17.8,5.3,26c32.7,32.7,65.4,65.5,98.1,98.2c11.5,11.5,22.6,11.4,34.2-.1c32.4-32.4,64.7-64.8,97.1-97.1c10.6-10.6,11.6-22.8,2.7-31.7s-21.1-7.9-31.7,2.7c-27.1,27.1-52.9,53.9-79.9,81-1.3,1.1-2.5,2.3-4.9,4.7Z" fill="#fff"/></g></g></g></g></svg>
