<svg id="ebHPELQXBlp1" xmlns="http://www.w3.org/2000/svg" xmlns:xlink="http://www.w3.org/1999/xlink" viewBox="0 0 400 400" shape-rendering="geometricPrecision" text-rendering="geometricPrecision">
<style><![CDATA[
#ebHPELQXBlp2 {animation: ebHPELQXBlp2_c_o 3947.3684210526317ms linear infinite normal forwards}@keyframes ebHPELQXBlp2_c_o { 0% {opacity: 1} 33.333333% {opacity: 0} 66.666667% {opacity: 1} 100% {opacity: 0}} #ebHPELQXBlp3 {animation: ebHPELQXBlp3_c_o 3947.3684210526317ms linear infinite normal forwards}@keyframes ebHPELQXBlp3_c_o { 0% {opacity: 0} 33.333333% {opacity: 1} 66.666667% {opacity: 0} 100% {opacity: 1}}
]]></style>
<path id="ebHPELQXBlp2" d="M4.8,195.9c1.7-7.7,4.6-14.8,10.6-20.1c13.7-12.2,32.3-11.6,45.9,1.4c3.8,3.7,7.5,7.5,11.3,11.3c41.3,41.3,82.5,82.5,123.8,123.8c1,1,1.7,2.2,4.3,4c.8-1.3,1.3-2.9,2.3-3.9c44.5-44.6,89.1-89.2,133.7-133.8c8.6-8.6,18.6-12.9,30.9-10.9c23.8,3.8,35.2,33.2,20.1,52-1.3,1.7-2.7,3.3-4.3,4.9-53,53-106,106-159,159-10.1,10.1-22,14-35.7,8.9-4.8-1.8-9.5-5-13.2-8.6C122.1,330.6,68.9,277.3,15.6,224c-5.8-5.8-9.1-12.7-10.7-20.5-.1-2.5-.1-5.1-.1-7.6Z" transform="translate(.339136 0)" fill="#fff"/><path id="ebHPELQXBlp3" d="M348.2,4.8c6.5,1.7,12.7,3.7,18.2,8.1c13.9,11.2,16.4,32,4.6,45.3-6.3,7.1-13.4,13.4-20.3,20-38.8,36.9-77.6,73.7-116.5,110.5-12.7,12-28.7,14.4-43.7,6.3-3.2-1.7-6.1-4.2-8.7-6.7-44.2-41.9-88.4-83.7-132.5-125.7-12.7-12-15.2-27.4-6.5-41.6C48,12.4,56,7.6,65.7,5.5c.8-.2,1.7-.5,2.5-.7c2.8,0,5.6,0,8.4,0c8.5,1.6,16,5.2,22.3,11.3C134.4,49.9,170,83.7,205.6,117.4c.8.8,1.7,1.5,2.6,2.3c1.3-1.2,2.4-2.2,3.5-3.2c33.7-31.9,67.4-63.8,100.9-95.9c7.7-7.4,15.7-13.9,26.6-15.8c2.9,0,5.9,0,9,0Z" transform="translate(-.395852 0)" opacity="0" fill="#fff"/></svg>
